<svg width="248" height="284" viewBox="0 0 248 284" fill="none" xmlns="http://www.w3.org/2000/svg">
<g clip-path="url(#clip0)">
<path fill-rule="evenodd" clip-rule="evenodd" d="M229.033 136.042C229.053 138.735 228.5 141.389 227.412 143.829C226.323 146.269 224.724 148.438 222.72 150.194C220.715 151.949 218.351 153.251 215.785 154.012C213.218 154.773 210.508 154.976 207.833 154.608L176.221 150.261C170.424 149.462 165.26 146.045 162.216 141L149.391 119.758C148.726 118.658 147.792 117.743 146.679 117.101C145.566 116.459 144.312 116.112 143.039 116.094L105.198 115.601C103.923 115.585 102.673 115.9 101.569 116.514C100.464 117.129 99.5443 118.022 98.8978 119.107L86.426 140.013C84.9642 142.464 82.9573 144.538 80.5568 146.08C78.1563 147.621 75.4252 148.589 72.5699 148.911L41.0296 152.442C29.6905 153.711 19.5994 144.732 19.5136 133.312L19.3831 117.386C19.2897 105.988 25.2136 95.0466 35.9061 90.0422C63.2686 77.2287 93.2961 70.8037 123.761 71.2435C154.222 71.5964 184.358 78.8029 211.935 92.3285C222.696 97.6125 228.809 108.719 228.902 120.116L229.033 136.042Z" fill="#E4FEF2"/>
</g>
<path fill-rule="evenodd" clip-rule="evenodd" d="M110.632 154C110.202 154 109.786 154.157 109.463 154.442V154.442C109.14 154.727 108.724 154.884 108.293 154.884H84.9527C82.1913 154.884 79.9527 157.123 79.9527 159.884V178.215C79.9527 179.65 79.3363 181.016 78.2603 181.965L27.5893 226.66C27.3841 226.842 27.5121 227.18 27.7858 227.18V227.18C28.0471 227.18 28.1895 227.502 28.0368 227.714C27.4453 228.535 27.0969 229.543 27.0969 230.633V279C27.0969 281.761 29.3355 284 32.0969 284H215.905C218.666 284 220.905 281.761 220.905 279V230.633C220.905 229.543 220.556 228.535 219.965 227.713C219.812 227.501 219.954 227.18 220.215 227.18V227.18C220.489 227.18 220.616 226.842 220.411 226.661L168.901 181.225C167.825 180.276 167.208 178.91 167.208 177.475V159.884C167.208 157.123 164.97 154.884 162.208 154.884H139.707C139.276 154.884 138.861 154.727 138.537 154.442V154.442C138.214 154.157 137.799 154 137.368 154H110.632Z" fill="#E4FEF2"/>
<ellipse cx="124.5" cy="229" rx="45.5" ry="45" fill="#245E41"/>
<defs>
<clipPath id="clip0">
<rect width="172.401" height="176.1" fill="white" transform="translate(247.397 125.702) rotate(135.139)"/>
</clipPath>
</defs>
</svg>
